<svg xmlns="http://www.w3.org/2000/svg" width="28.437" height="28.437" viewBox="0 0 28.437 28.437">
  <path id="Path_5" data-name="Path 5" d="M9.531,24.75a2.844,2.844,0,1,0,2.844,2.844A2.84,2.84,0,0,0,9.531,24.75ZM1,2V4.844H3.844L8.962,15.636l-1.92,3.484a2.749,2.749,0,0,0-.355,1.365,2.852,2.852,0,0,0,2.844,2.844H26.594V20.484H10.128a.352.352,0,0,1-.355-.355l.043-.171,1.28-2.318H21.688a2.83,2.83,0,0,0,2.488-1.465l5.09-9.228a1.389,1.389,0,0,0,.171-.682,1.426,1.426,0,0,0-1.422-1.422H6.986L5.65,2H1ZM23.75,24.75a2.844,2.844,0,1,0,2.844,2.844A2.84,2.84,0,0,0,23.75,24.75Z" transform="translate(-1 -2)" fill="#d950c4"/>
</svg>
